<?xml version="1.0" encoding="UTF-8" standalone="no"?>
<!DOCTYPE svg PUBLIC "-//W3C//DTD SVG 1.1//EN" "http://www.w3.org/Graphics/SVG/1.1/DTD/svg11.dtd">
<svg width="100%" height="100%" viewBox="0 0 40 32" version="1.1" xmlns="http://www.w3.org/2000/svg"
    xmlns:xlink="http://www.w3.org/1999/xlink" xml:space="preserve" xmlns:serif="http://www.serif.com/"
    style="fill-rule:evenodd;clip-rule:evenodd;stroke-linejoin:round;stroke-miterlimit:2;">
    <g transform="matrix(0.0326198,0,0,0.0326198,-0.313526,6.08196)">
        <g transform="matrix(1,0,0,1,-148.728,-137.058)">
            <g transform="matrix(504.167,0,0,504.167,217.638,579.25)">
                <path
                    d="M0.318,0.194C0.256,0.194 0.209,0.178 0.177,0.147C0.145,0.116 0.129,0.072 0.129,0.015L0.129,-0.166C0.129,-0.182 0.125,-0.194 0.117,-0.202C0.109,-0.209 0.098,-0.213 0.085,-0.213L0.052,-0.213L0.052,-0.335L0.085,-0.335C0.098,-0.335 0.109,-0.339 0.117,-0.347C0.125,-0.355 0.129,-0.367 0.129,-0.382L0.129,-0.563C0.129,-0.621 0.145,-0.665 0.177,-0.696C0.209,-0.727 0.256,-0.742 0.318,-0.742L0.376,-0.742L0.376,-0.62L0.358,-0.62C0.334,-0.62 0.316,-0.614 0.304,-0.601C0.291,-0.588 0.285,-0.57 0.285,-0.546L0.285,-0.386C0.285,-0.357 0.281,-0.334 0.273,-0.317C0.265,-0.3 0.253,-0.288 0.235,-0.281C0.219,-0.274 0.197,-0.268 0.17,-0.265L0.17,-0.283C0.197,-0.28 0.219,-0.275 0.235,-0.268C0.253,-0.26 0.265,-0.248 0.273,-0.231C0.281,-0.214 0.285,-0.191 0.285,-0.162L0.285,-0.002C0.285,0.022 0.291,0.04 0.304,0.053C0.316,0.066 0.334,0.072 0.358,0.072L0.376,0.072L0.376,0.194L0.318,0.194Z"
                    style="fill:rgb(245,174,248);fill-rule:nonzero;" />
            </g>
            <g transform="matrix(504.167,0,0,504.167,1128.16,579.25)">
                <path
                    d="M0.073,0.194L0.015,0.194L0.015,0.072L0.033,0.072C0.057,0.072 0.075,0.066 0.087,0.053C0.1,0.04 0.106,0.022 0.106,-0.002L0.106,-0.162C0.106,-0.191 0.11,-0.214 0.118,-0.231C0.127,-0.248 0.139,-0.26 0.156,-0.268C0.173,-0.275 0.194,-0.28 0.221,-0.283L0.221,-0.265C0.194,-0.268 0.173,-0.274 0.156,-0.281C0.139,-0.288 0.127,-0.3 0.118,-0.317C0.11,-0.334 0.106,-0.357 0.106,-0.386L0.106,-0.546C0.106,-0.57 0.1,-0.588 0.087,-0.601C0.075,-0.614 0.057,-0.62 0.033,-0.62L0.015,-0.62L0.015,-0.742L0.073,-0.742C0.136,-0.742 0.183,-0.727 0.215,-0.696C0.246,-0.665 0.262,-0.621 0.262,-0.563L0.262,-0.382C0.262,-0.367 0.266,-0.355 0.274,-0.347C0.282,-0.339 0.293,-0.335 0.306,-0.335L0.339,-0.335L0.339,-0.213L0.306,-0.213C0.293,-0.213 0.282,-0.209 0.274,-0.202C0.266,-0.194 0.262,-0.182 0.262,-0.166L0.262,0.015C0.262,0.072 0.246,0.116 0.215,0.147C0.183,0.178 0.136,0.194 0.073,0.194Z"
                    style="fill:rgb(245,174,248);fill-rule:nonzero;" />
            </g>
        </g>
        <g transform="matrix(1,0,0,1,69.5964,-45.6683)">
            <path
                d="M341.249,431.305L247.756,431.305L247.756,524.798L341.249,524.798L341.249,431.305ZM858.526,431.305L765.032,431.305L765.032,524.798L858.526,524.798L858.526,431.305ZM728.121,431.305L377.075,431.305L377.075,524.798L728.121,524.798L728.121,431.305ZM341.249,302.972L247.756,302.972L247.756,396.465L341.249,396.465L341.249,302.972ZM470.568,302.972L377.075,302.972L377.075,396.465L470.568,396.465L470.568,302.972ZM599.887,302.972L506.394,302.972L506.394,396.465L599.887,396.465L599.887,302.972ZM858.526,302.972L634.628,302.972L634.628,396.465L858.526,396.465L858.526,302.972ZM341.249,174.638L247.756,174.638L247.756,268.132L341.249,268.132L341.249,174.638ZM470.568,174.638L377.075,174.638L377.075,268.132L470.568,268.132L470.568,174.638ZM599.887,174.638L506.394,174.638L506.394,268.132L599.887,268.132L599.887,174.638ZM858.526,174.638L765.032,174.638L765.032,268.132L858.526,268.132L858.526,174.638ZM728.121,174.638L634.628,174.638L634.628,268.132L728.121,268.132L728.121,174.638Z"
                style="fill:rgb(153,117,243);" />
        </g>
    </g>
</svg>